<?xml version="1.0" encoding="utf-8"?>
<!-- Generator: Adobe Illustrator 23.0.2, SVG Export Plug-In . SVG Version: 6.00 Build 0)  -->
<svg version="1.1" id="Layer_1" xmlns="http://www.w3.org/2000/svg" xmlns:xlink="http://www.w3.org/1999/xlink" x="0px" y="0px"
	 viewBox="0 0 1024 1024" style="enable-background:new 0 0 1024 1024;" xml:space="preserve">
<style type="text/css">
	.st0{fill:#9E2064;}
	.st1{fill:#C579A2;}
	.st2{fill:#9E1F63;}
	.st3{fill:#EE4043;}
</style>
<g>
	<rect x="547.66" y="164.51" class="st0" width="61.71" height="61.72"/>
	<rect x="670.63" y="164.51" class="st0" width="61.72" height="61.72"/>
	<rect x="609.23" y="226" class="st0" width="61.59" height="61.71"/>
	<rect x="609.23" y="102.8" class="st0" width="61.59" height="61.72"/>
	<rect x="609.23" y="164.51" class="st1" width="61.62" height="61.72"/>
</g>
<path class="st2" d="M414.7,164.35h74.52v193.55c15.98-18.45,40.97-27.44,65.11-27.44c62.23,0,105.23,51.59,105.23,111.78
	c0,60.61-43.41,112.19-106.06,112.19c-24.55,0-49.94-9.43-63.46-30.31h-0.83v23.35H414.7V164.35z M486.79,442.65
	c0,26.61,17.6,47.08,47.9,47.08c30.3,0,47.9-20.47,47.9-47.08c0-25.81-17.6-47.5-47.9-47.5
	C504.39,395.14,486.79,416.83,486.79,442.65z"/>
<path class="st2" d="M227.19,364.58h0.82c13.51-20.89,38.89-30.71,63.46-30.71c62.65,0,106.06,52.4,106.06,112.59
	c0,60.62-43,111.36-105.23,111.36c-24.16,0-49.12-8.6-65.1-27v162.38h-74.52V340.83h74.52V364.58z M224.72,446.08
	c0,26.59,17.62,47.07,47.91,47.07c30.3,0,47.92-20.49,47.92-47.07c0-25.83-17.62-47.51-47.92-47.51
	C242.34,398.57,224.72,420.26,224.72,446.08z"/>
<g>
	<path class="st3" d="M275.53,602.48h34.22c17.36,0,24.15,10.57,24.15,27.17c0,10.32-3.02,26.67-25.29,26.67h-14.09v36.99h-19
		V602.48z M294.53,642.36h10.57c5.66,0,9.56-6.17,9.56-12.2c0-7.42-2.01-13.72-10.57-13.72h-9.56V642.36z"/>
	<path class="st3" d="M386.99,681.49c0,3.9,0.5,7.93,0.88,11.83h-16.48l-0.75-8.43h-0.25c-3.78,6.54-8.93,9.69-16.61,9.69
		c-12.33,0-16.86-9.18-16.86-20.26c0-21.01,16.23-21.89,32.71-21.64v-4.9c0-5.41-0.75-9.31-7.17-9.31c-6.16,0-6.67,4.66-6.67,9.69
		h-17.36c0-7.67,2.39-12.58,6.54-15.47c4.03-3.02,9.81-4.16,16.61-4.16c22.52,0,25.41,9.69,25.41,21.26V681.49z M354.28,673.56
		c0,4.53,0.75,10.07,6.54,10.07c10.44,0,8.81-14.09,8.81-21.01C360.82,662.99,354.28,662.24,354.28,673.56z"/>
	<path class="st3" d="M396.42,629.78h7.17v-10.06l17.74-7.93v17.99h9.18v10.95h-9.18v33.96c0,4.78-0.12,7.93,5.66,7.93
		c1.13,0,2.26,0,3.15-0.25v10.95c-2.39,0.25-4.91,0.63-9.18,0.63c-15.35,0-17.36-10.19-17.36-14.09v-39.12h-7.17V629.78z"/>
	<path class="st3" d="M459.7,602.48v13.96h-17.74v-13.96H459.7z M459.7,693.31h-17.74v-63.53h17.74V693.31z"/>
	<path class="st3" d="M488.64,664.38c0,7.55,0.25,18.87,8.05,18.87c6.29,0,7.55-6.04,7.55-11.32h17.99
		c-0.25,6.92-2.52,12.58-6.79,16.48c-4.15,3.9-10.44,6.16-18.75,6.16c-22.9,0-25.92-13.96-25.92-33.84
		c0-17.36,2.52-32.21,25.92-32.21c23.9,0,26.54,15.47,25.92,35.86H488.64z M504.87,654.44c0-6.16,0.25-14.97-8.18-14.97
		c-8.18,0-8.05,9.56-8.05,14.97H504.87z"/>
	<path class="st3" d="M552.29,636.19h0.26c1.76-2.89,3.9-4.78,6.29-5.91c2.52-1.26,5.41-1.76,8.69-1.76
		c8.43,0,15.85,5.03,15.85,13.84v50.95h-17.73v-43.78c0-5.66-1.01-10.07-6.67-10.07c-5.66,0-6.67,4.4-6.67,10.07v43.78h-17.73
		v-63.53h17.73V636.19z"/>
	<path class="st3" d="M592.17,629.78h7.17v-10.06l17.74-7.93v17.99h9.18v10.95h-9.18v33.96c0,4.78-0.13,7.93,5.66,7.93
		c1.14,0,2.27,0,3.15-0.25v10.95c-2.39,0.25-4.9,0.63-9.18,0.63c-15.35,0-17.36-10.19-17.36-14.09v-39.12h-7.17V629.78z"/>
	<path class="st3" d="M644.88,693.31v-90.83h33.72c14.46,0,26.42,4.15,26.42,23.52c0,10.45-5.16,17.99-15.47,20.01v0.25
		c13.46,1.89,16.98,10.57,16.98,23.02c0,23.02-20.01,24.03-28.06,24.03H644.88z M663.88,639.59h12.71c4.16,0,9.94-2.76,9.94-11.57
		c0-6.67-4.53-11.58-10.95-11.58h-11.7V639.59z M663.88,679.35h10.57c4.03,0,13.09-0.13,13.09-12.83c0-8.05-3.02-12.96-12.58-12.96
		h-11.08V679.35z"/>
	<path class="st3" d="M713.44,660.73c0-17.36,2.52-32.21,25.92-32.21c23.4,0,25.91,14.85,25.91,32.21
		c0,19.88-3.02,33.84-25.91,33.84C716.47,694.57,713.44,680.61,713.44,660.73z M747.54,659.72c0-13.21-0.63-19.88-8.18-19.88
		c-7.55,0-8.18,6.67-8.18,19.88c0,19.37,1.63,23.53,8.18,23.53C745.9,683.25,747.54,679.09,747.54,659.72z"/>
	<path class="st3" d="M792.45,636.19h0.25c1.76-2.89,3.9-4.78,6.29-5.91c2.52-1.26,5.41-1.76,8.68-1.76
		c8.43,0,15.85,5.03,15.85,13.84v50.95h-17.74v-43.78c0-5.66-1-10.07-6.67-10.07c-5.66,0-6.67,4.4-6.67,10.07v43.78H774.7v-63.53
		h17.74V636.19z"/>
	<path class="st3" d="M866.17,693.31v-7.04h-0.25c-3.27,6.16-8.18,8.3-14.96,8.3c-18.37,0-17.74-20.38-17.74-33.47
		c0-12.83-0.5-32.58,17.36-32.58c6.42,0,10.82,1.89,14.47,7.3h0.25v-33.34h17.74v90.83H866.17z M865.29,660.98
		c0-12.71,0.13-21.51-7.17-21.51c-7.67,0-7.55,8.81-7.55,21.51c0,15.98,1.14,22.64,7.55,22.64
		C864.16,683.63,865.29,676.96,865.29,660.98z"/>
</g>
<g>
	<path class="st0" d="M15.95,867.34l11.38-54.34h39.22l-1.3,6.19H33.3l-3.56,16.9h31.14l-1.3,6.19H28.44l-3.93,18.91h34.21
		l-1.3,6.15H15.95z"/>
	<path class="st0" d="M65.69,867.34l8.23-39.37H80l-1.45,6.86c2.64-2.69,5.12-4.66,7.41-5.89c2.3-1.23,4.65-1.85,7.04-1.85
		c3.19,0,5.69,0.87,7.51,2.6s2.72,4.04,2.72,6.93c0,1.46-0.32,3.76-0.96,6.89l-5,23.83h-6.71l5.23-24.95
		c0.52-2.42,0.78-4.21,0.78-5.37c0-1.31-0.45-2.37-1.35-3.19c-0.9-0.82-2.21-1.22-3.91-1.22c-3.44,0-6.49,1.23-9.17,3.71
		c-2.68,2.47-4.65,6.71-5.91,12.71l-3.82,18.31H65.69z"/>
	<path class="st0" d="M107.54,870.9l6.78,0.63c-0.05,1.53,0.14,2.68,0.56,3.45c0.42,0.77,1.09,1.36,2,1.78
		c1.21,0.54,2.78,0.82,4.71,0.82c4.05,0,6.97-1.05,8.75-3.15c1.16-1.41,2.24-4.47,3.22-9.19l0.67-3.19
		c-3.48,3.53-7.19,5.3-11.12,5.3c-3.98,0-7.31-1.46-9.99-4.39c-2.68-2.93-4.02-7.07-4.02-12.44c0-4.42,1.06-8.49,3.17-12.2
		c2.11-3.71,4.63-6.51,7.54-8.4c2.92-1.89,5.92-2.84,9.01-2.84c5.16,0,9.14,2.45,11.94,7.34l1.33-6.45h6.15l-7.93,37.99
		c-0.87,4.18-2,7.43-3.41,9.77c-1.41,2.33-3.37,4.14-5.88,5.43c-2.51,1.28-5.41,1.93-8.69,1.93c-3.16,0-5.89-0.41-8.17-1.22
		c-2.29-0.82-3.99-2.01-5.12-3.58c-1.13-1.57-1.69-3.37-1.69-5.39C107.36,872.28,107.42,871.61,107.54,870.9z M115.92,849.92
		c0,2.69,0.26,4.72,0.78,6.08c0.74,1.9,1.8,3.35,3.17,4.35c1.37,1,2.9,1.5,4.58,1.5c2.2,0,4.39-0.77,6.56-2.32
		c2.17-1.54,3.93-3.93,5.28-7.17c1.35-3.24,2.02-6.33,2.02-9.27c0-3.24-0.9-5.81-2.69-7.73c-1.79-1.91-4.01-2.87-6.65-2.87
		c-1.63,0-3.21,0.44-4.75,1.32c-1.53,0.88-2.96,2.21-4.28,4c-1.32,1.79-2.32,3.93-3,6.43C116.26,846.74,115.92,848.63,115.92,849.92
		z"/>
	<path class="st0" d="M176.68,862.44c-2.32,2-4.56,3.47-6.71,4.39s-4.45,1.39-6.89,1.39c-3.63,0-6.56-1.07-8.79-3.21
		c-2.22-2.14-3.34-4.87-3.34-8.21c0-2.2,0.5-4.15,1.5-5.84c1-1.69,2.33-3.05,3.98-4.08c1.66-1.03,3.68-1.76,6.08-2.21
		c1.51-0.3,4.37-0.53,8.58-0.7c4.21-0.17,7.23-0.62,9.06-1.33c0.52-1.83,0.78-3.35,0.78-4.56c0-1.56-0.57-2.78-1.71-3.67
		c-1.56-1.23-3.83-1.85-6.82-1.85c-2.82,0-5.12,0.62-6.91,1.87c-1.79,1.25-3.09,3.02-3.91,5.32l-6.78-0.59
		c1.38-3.9,3.58-6.89,6.58-8.97c3-2.08,6.79-3.11,11.36-3.11c4.87,0,8.72,1.16,11.57,3.49c2.17,1.73,3.26,3.98,3.26,6.75
		c0,2.1-0.31,4.53-0.93,7.3l-2.19,9.79c-0.69,3.11-1.04,5.65-1.04,7.6c0,1.24,0.27,3.02,0.82,5.34h-6.78
		C177.08,866.05,176.83,864.42,176.68,862.44z M179.16,847.39c-0.94,0.37-1.95,0.66-3.02,0.85c-1.08,0.2-2.87,0.41-5.39,0.63
		c-3.91,0.35-6.66,0.79-8.27,1.32c-1.61,0.53-2.82,1.38-3.63,2.54c-0.82,1.16-1.22,2.45-1.22,3.85c0,1.88,0.65,3.42,1.95,4.63
		c1.3,1.21,3.14,1.82,5.54,1.82c2.22,0,4.36-0.59,6.41-1.76c2.05-1.17,3.67-2.81,4.86-4.91
		C177.57,854.27,178.49,851.27,179.16,847.39z"/>
	<path class="st0" d="M191.99,870.9l6.78,0.63c-0.05,1.53,0.14,2.68,0.56,3.45c0.42,0.77,1.09,1.36,2,1.78
		c1.21,0.54,2.78,0.82,4.71,0.82c4.05,0,6.97-1.05,8.75-3.15c1.16-1.41,2.24-4.47,3.22-9.19l0.67-3.19
		c-3.48,3.53-7.19,5.3-11.12,5.3c-3.98,0-7.31-1.46-9.99-4.39c-2.68-2.93-4.02-7.07-4.02-12.44c0-4.42,1.06-8.49,3.17-12.2
		c2.11-3.71,4.63-6.51,7.54-8.4c2.92-1.89,5.92-2.84,9.01-2.84c5.16,0,9.14,2.45,11.94,7.34l1.33-6.45h6.15l-7.93,37.99
		c-0.87,4.18-2,7.43-3.41,9.77c-1.41,2.33-3.37,4.14-5.88,5.43c-2.51,1.28-5.41,1.93-8.69,1.93c-3.16,0-5.89-0.41-8.17-1.22
		c-2.29-0.82-3.99-2.01-5.12-3.58c-1.13-1.57-1.69-3.37-1.69-5.39C191.8,872.28,191.86,871.61,191.99,870.9z M200.36,849.92
		c0,2.69,0.26,4.72,0.78,6.08c0.74,1.9,1.8,3.35,3.17,4.35c1.37,1,2.9,1.5,4.58,1.5c2.2,0,4.39-0.77,6.56-2.32
		c2.17-1.54,3.93-3.93,5.28-7.17c1.35-3.24,2.02-6.33,2.02-9.27c0-3.24-0.9-5.81-2.69-7.73c-1.79-1.91-4.01-2.87-6.65-2.87
		c-1.63,0-3.21,0.44-4.75,1.32c-1.53,0.88-2.96,2.21-4.28,4c-1.32,1.79-2.32,3.93-3,6.43C200.7,846.74,200.36,848.63,200.36,849.92z
		"/>
	<path class="st0" d="M263.49,853.96l6.52,0.67c-0.94,3.24-3.09,6.31-6.47,9.23c-3.37,2.92-7.4,4.37-12.07,4.37
		c-2.92,0-5.59-0.67-8.03-2.02c-2.43-1.35-4.29-3.3-5.56-5.88c-1.27-2.57-1.91-5.5-1.91-8.79c0-4.3,0.99-8.47,2.98-12.51
		c1.99-4.04,4.57-7.04,7.73-9.01c3.16-1.96,6.59-2.95,10.27-2.95c4.7,0,8.44,1.46,11.25,4.37c2.8,2.92,4.21,6.89,4.21,11.94
		c0,1.93-0.17,3.91-0.52,5.93h-28.99c-0.1,0.77-0.15,1.46-0.15,2.08c0,3.68,0.85,6.49,2.54,8.43c1.69,1.94,3.76,2.91,6.21,2.91
		c2.3,0,4.56-0.75,6.78-2.26C260.52,858.97,262.25,856.8,263.49,853.96z M243.99,844.21h22.09c0.02-0.69,0.04-1.19,0.04-1.48
		c0-3.36-0.84-5.94-2.52-7.73c-1.68-1.79-3.84-2.69-6.49-2.69c-2.87,0-5.48,0.99-7.84,2.97
		C246.91,837.25,245.15,840.23,243.99,844.21z"/>
	<path class="st0" d="M276.76,867.34l8.23-39.37h6.71l-1.37,6.49c2.5-2.79,4.73-4.72,6.69-5.78c1.97-1.06,4.1-1.59,6.39-1.59
		c2.45,0,4.49,0.65,6.13,1.95c1.64,1.3,2.72,3.11,3.24,5.43c2-2.47,4.11-4.32,6.32-5.54c2.21-1.22,4.54-1.84,6.99-1.84
		c3.29,0,5.75,0.78,7.4,2.34c1.64,1.56,2.46,3.74,2.46,6.56c0,1.21-0.28,3.21-0.85,6l-5.3,25.36h-6.71l5.41-26.02
		c0.47-2.12,0.7-3.65,0.7-4.56c0-1.28-0.41-2.3-1.22-3.04c-0.82-0.74-1.96-1.11-3.45-1.11c-2,0-4.04,0.6-6.12,1.82
		c-2.08,1.21-3.69,2.8-4.84,4.76c-1.15,1.97-2.16,4.99-3.02,9.06l-4,19.09h-6.71l5.56-26.58c0.39-1.8,0.59-3.09,0.59-3.86
		c0-1.28-0.4-2.32-1.2-3.11c-0.8-0.79-1.85-1.19-3.13-1.19c-1.9,0-3.9,0.6-5.99,1.82c-2.09,1.21-3.79,2.9-5.1,5.06
		c-1.31,2.16-2.38,5.25-3.22,9.25l-3.89,18.61H276.76z"/>
	<path class="st0" d="M368.95,853.96l6.52,0.67c-0.94,3.24-3.1,6.31-6.47,9.23c-3.37,2.92-7.39,4.37-12.07,4.37
		c-2.92,0-5.59-0.67-8.03-2.02c-2.43-1.35-4.29-3.3-5.56-5.88c-1.27-2.57-1.91-5.5-1.91-8.79c0-4.3,0.99-8.47,2.98-12.51
		c1.99-4.04,4.57-7.04,7.73-9.01c3.16-1.96,6.59-2.95,10.27-2.95c4.7,0,8.44,1.46,11.25,4.37c2.8,2.92,4.21,6.89,4.21,11.94
		c0,1.93-0.17,3.91-0.52,5.93h-28.99c-0.1,0.77-0.15,1.46-0.15,2.08c0,3.68,0.85,6.49,2.54,8.43c1.69,1.94,3.76,2.91,6.21,2.91
		c2.3,0,4.56-0.75,6.78-2.26C365.98,858.97,367.71,856.8,368.95,853.96z M349.45,844.21h22.09c0.02-0.69,0.04-1.19,0.04-1.48
		c0-3.36-0.84-5.94-2.52-7.73c-1.68-1.79-3.84-2.69-6.49-2.69c-2.87,0-5.48,0.99-7.84,2.97
		C352.37,837.25,350.61,840.23,349.45,844.21z"/>
	<path class="st0" d="M382.26,867.34l8.23-39.37h6.08l-1.45,6.86c2.64-2.69,5.12-4.66,7.41-5.89c2.3-1.23,4.65-1.85,7.04-1.85
		c3.19,0,5.69,0.87,7.51,2.6c1.82,1.73,2.73,4.04,2.73,6.93c0,1.46-0.32,3.76-0.96,6.89l-5,23.83h-6.71l5.23-24.95
		c0.52-2.42,0.78-4.21,0.78-5.37c0-1.31-0.45-2.37-1.35-3.19c-0.9-0.82-2.21-1.22-3.91-1.22c-3.43,0-6.49,1.23-9.17,3.71
		c-2.68,2.47-4.65,6.71-5.91,12.71l-3.82,18.31H382.26z"/>
	<path class="st0" d="M440.16,861.89l-1.11,5.49c-1.61,0.42-3.16,0.63-4.67,0.63c-2.67,0-4.79-0.65-6.38-1.96
		c-1.19-0.99-1.78-2.34-1.78-4.04c0-0.86,0.32-2.85,0.96-5.97l4.78-22.87h-5.3l1.08-5.19h5.3l2.04-9.68l7.67-4.63l-3,14.31h6.6
		l-1.11,5.19h-6.56l-4.56,21.76c-0.57,2.77-0.85,4.42-0.85,4.97c0,0.79,0.23,1.4,0.69,1.82c0.46,0.42,1.21,0.63,2.24,0.63
		C437.67,862.33,439,862.18,440.16,861.89z"/>
</g>
<g>
	<path class="st0" d="M518.57,863.65h-34.46l-10.44,19.22h-18.39l49.17-86.95h19.87l14.11,86.95h-16.96L518.57,863.65z
		 M516.37,849.18l-5.04-34.99l-21,34.99H516.37z"/>
	<path class="st0" d="M561.86,819.88h16.01l-1.6,7.65c6.25-6.09,12.81-9.13,19.69-9.13c4.74,0,8.4,0.99,10.97,2.96
		c2.57,1.98,4.21,4.71,4.92,8.18c2.17-3.16,5.3-5.81,9.37-7.95c4.07-2.14,8.3-3.2,12.69-3.2c5.02,0,8.94,1.34,11.74,4.03
		c2.81,2.69,4.21,6.25,4.21,10.68c0,2.17-0.55,5.93-1.66,11.27l-8.07,38.49h-17.02l8.07-38.49c0.99-4.82,1.48-7.55,1.48-8.18
		c0-1.74-0.52-3.11-1.57-4.12c-1.05-1.01-2.62-1.51-4.71-1.51c-4.23,0-8.01,2.23-11.33,6.7c-2.41,3.2-4.47,8.88-6.17,17.02
		l-5.99,28.59h-17.02l7.95-38.08c0.91-4.39,1.36-7.24,1.36-8.54c0-1.66-0.56-3.03-1.69-4.09c-1.13-1.07-2.68-1.6-4.66-1.6
		c-1.86,0-3.78,0.55-5.75,1.66c-1.98,1.11-3.71,2.63-5.19,4.57c-1.48,1.94-2.76,4.43-3.82,7.47c-0.47,1.42-1.25,4.65-2.31,9.67
		l-6.05,28.94h-17.02L561.86,819.88z"/>
	<path class="st0" d="M669.86,819.88h16.13l-1.36,6.46c3.44-2.85,6.66-4.88,9.67-6.11c3-1.22,6.23-1.84,9.67-1.84
		c6.6,0,11.91,2.27,15.92,6.82c4.01,4.55,6.02,11.33,6.02,20.34c0,11.35-3.46,20.94-10.38,28.77c-5.93,6.68-12.95,10.02-21.05,10.02
		c-8.34,0-14.65-3.38-18.92-10.14l-6.82,32.68h-17.02L669.86,819.88z M680.12,856c0,4.9,1.19,8.71,3.59,11.42
		c2.39,2.71,5.21,4.06,8.45,4.06c2.81,0,5.52-1.02,8.13-3.05c2.61-2.04,4.77-5.42,6.49-10.14c1.72-4.72,2.58-9.1,2.58-13.14
		c0-4.7-1.13-8.31-3.38-10.82c-2.25-2.51-5.12-3.77-8.6-3.77c-3.24,0-6.2,1.16-8.87,3.47c-2.67,2.31-4.74,5.71-6.2,10.2
		C680.85,848.72,680.12,852.64,680.12,856z"/>
	<path class="st0" d="M731.31,882.87l18.21-86.95h16.96l-18.15,86.95H731.31z"/>
	<path class="st0" d="M778.34,819.88h17.02l-13.17,62.99h-17.02L778.34,819.88z M783.32,795.92h17.02l-3.2,15.42h-17.02
		L783.32,795.92z"/>
	<path class="st0" d="M842.81,819.88l-2.61,12.45h-12.04l-10.56,50.53h-17.02l10.56-50.53h-9.49l2.61-12.45h9.49l1.36-6.46
		c1.11-5.3,2.15-8.88,3.14-10.74c1.34-2.53,3.35-4.54,6.02-6.02c2.67-1.48,6.16-2.22,10.47-2.22c5.22,0,10.71,0.95,16.49,2.85
		l-3.32,12.16c-4.07-1.38-7.37-2.08-9.91-2.08c-1.94,0-3.38,0.61-4.33,1.84c-0.63,0.79-1.29,2.87-1.96,6.23l-0.95,4.45H842.81z"/>
	<path class="st0" d="M852.53,819.88h17.02l-13.17,62.99h-17.02L852.53,819.88z M857.52,795.92h17.02l-3.2,15.42h-17.02
		L857.52,795.92z"/>
	<path class="st0" d="M934.44,856.65h-42.7c-0.04,0.67-0.06,1.19-0.06,1.54c0,4.19,1.2,7.57,3.59,10.14
		c2.39,2.57,5.31,3.86,8.75,3.86c5.65,0,10.06-2.93,13.23-8.78l15.24,2.55c-2.97,6.13-6.93,10.73-11.89,13.79
		c-4.96,3.06-10.53,4.6-16.7,4.6c-8.46,0-15.34-2.68-20.64-8.04s-7.95-12.45-7.95-21.26c0-8.62,2.39-16.29,7.18-23.01
		c6.52-9.09,15.84-13.64,27.93-13.64c7.71,0,13.84,2.38,18.39,7.15c4.55,4.77,6.82,11.44,6.82,20.02
		C935.63,849.68,935.23,853.37,934.44,856.65z M920.09,846.27c0.04-0.75,0.06-1.32,0.06-1.72c0-4.66-1.05-8.16-3.14-10.5
		c-2.1-2.33-4.9-3.5-8.42-3.5c-3.52,0-6.67,1.32-9.46,3.97c-2.79,2.65-4.68,6.56-5.66,11.74H920.09z"/>
	<path class="st0" d="M998.85,882.87h-16.13l1.42-6.82c-3.08,2.96-6.12,5.09-9.1,6.38c-2.99,1.28-6.36,1.93-10.11,1.93
		c-6.52,0-11.81-2.22-15.87-6.67c-4.05-4.45-6.08-11.02-6.08-19.72c0-10.08,2.85-19.2,8.54-27.34c5.69-8.15,13.23-12.22,22.6-12.22
		c8.46,0,14.81,3.36,19.04,10.08l6.82-32.56H1017L998.85,882.87z M959.53,857.25c0,4.51,1.14,8.03,3.41,10.56
		c2.27,2.53,5.07,3.8,8.39,3.8c3.08,0,5.96-1.06,8.63-3.17c2.67-2.11,4.8-5.35,6.4-9.7c1.6-4.35,2.4-8.52,2.4-12.51
		c0-4.55-1.23-8.22-3.68-11.03c-2.45-2.81-5.28-4.21-8.48-4.21c-4.98,0-9.07,2.77-12.28,8.3
		C961.13,844.81,959.53,850.8,959.53,857.25z"/>
</g>
</svg>
